<svg width="430" height="427" viewBox="0 0 430 427" fill="none" xmlns="http://www.w3.org/2000/svg">
<path d="M182.152 19.7041L184.265 30.4002L188.402 29.5828L188.615 30.6591L179.096 32.5398L178.883 31.4634L183.021 30.646L180.907 19.9499L182.152 19.7041Z" fill="white"/>
<path d="M160.043 34.3487C159.348 34.5785 158.696 34.6439 158.085 34.545C157.467 34.4606 156.922 34.1956 156.45 33.75C155.966 33.3081 155.588 32.6748 155.315 31.8502L153.673 26.8864L154.828 26.504L156.433 31.3539C156.731 32.2544 157.183 32.8571 157.79 33.162C158.389 33.4814 159.096 33.5064 159.909 33.2371C160.517 33.036 161.007 32.7353 161.38 32.3349C161.746 31.949 161.977 31.4815 162.072 30.9323C162.16 30.3977 162.096 29.8048 161.881 29.1538L160.394 24.662L161.55 24.2796L165.546 36.3555L164.391 36.7379L162.446 30.8627L162.819 31.2267C162.753 31.9349 162.479 32.5613 161.997 33.106C161.519 33.6616 160.867 34.0758 160.043 34.3487Z" fill="white"/>
<path d="M134.585 34.2164C135.432 33.8137 136.258 33.6356 137.065 33.682C137.877 33.7387 138.61 33.9908 139.266 34.4381C139.927 34.8957 140.449 35.527 140.832 36.3319C141.215 37.1369 141.384 37.93 141.338 38.7112C141.281 39.4973 141.037 40.2083 140.606 40.844C140.169 41.4949 139.574 41.9996 138.82 42.3581C138.057 42.7215 137.297 42.8677 136.542 42.7967C135.782 42.741 135.081 42.4794 134.441 42.0119C133.806 41.5548 133.294 40.9186 132.906 40.1033C132.882 40.0517 132.86 39.9925 132.841 39.9257C132.816 39.8741 132.789 39.8173 132.76 39.7554L139.834 36.3891L140.224 37.2096L133.738 40.2959L134.017 39.7646C134.297 40.3528 134.674 40.8126 135.148 41.1439C135.617 41.4904 136.129 41.6896 136.685 41.7413C137.242 41.7931 137.803 41.6839 138.371 41.4138C138.928 41.1486 139.367 40.7815 139.688 40.3123C140.009 39.8432 140.183 39.3175 140.21 38.7352C140.237 38.153 140.108 37.5626 139.823 36.964L139.742 36.7937C139.447 36.1746 139.053 35.6915 138.558 35.3444C138.059 35.0126 137.503 34.828 136.89 34.7905C136.272 34.7682 135.648 34.9068 135.019 35.2064C134.523 35.4421 134.106 35.7483 133.766 36.1251C133.416 36.5068 133.172 36.9519 133.035 37.4604L132.077 37.043C132.232 36.4377 132.528 35.8914 132.967 35.4041C133.396 34.9217 133.935 34.5258 134.585 34.2164Z" fill="white"/>
<path d="M107.429 56.7084L102.336 60.4889L101.683 59.608L106.776 55.8274L107.429 56.7084ZM103.631 51.8209L104.649 51.0648L111.802 60.7003L105.195 65.6049L104.541 64.7239L110.129 60.5755L103.631 51.8209Z" fill="white"/>
<path d="M82.0423 69.3477L83.4124 70.789L83.674 70.9896L85.9653 73.4001C86.4929 73.9551 87.0558 74.2321 87.654 74.2311C88.244 74.2379 88.8454 73.95 89.4584 73.3674C89.8808 72.9658 90.2156 72.5135 90.4628 72.0105C90.71 71.5075 90.8559 71.014 90.9005 70.5301L91.9241 70.8107C91.8604 71.4073 91.6676 72.0006 91.3454 72.5906C91.0312 73.1889 90.6172 73.7322 90.1037 74.2204C89.2588 75.0235 88.4077 75.4304 87.5506 75.441C86.693 75.4678 85.8587 75.0546 85.0477 74.2014L81.1974 70.1508L82.0423 69.3477ZM84.2322 67.1478C84.7209 66.6832 85.2223 66.3564 85.7364 66.1674C86.25 65.9944 86.736 65.9583 87.1942 66.0588C87.6603 66.1676 88.0705 66.4084 88.4248 66.7811C88.7477 67.1208 88.9603 67.5021 89.0628 67.925C89.1648 68.3641 89.1123 68.8397 88.9053 69.3519C88.6979 69.8801 88.2836 70.4395 87.6624 71.0301L85.4134 73.1678L84.7875 72.5093L87.0115 70.3952C87.6411 69.7968 87.9738 69.2676 88.0097 68.8077C88.0373 68.3558 87.8937 67.9641 87.5787 67.6328C87.2244 67.26 86.796 67.0996 86.2934 67.1515C85.7909 67.2035 85.2788 67.4775 84.7569 67.9735C84.2599 68.446 83.9396 68.9633 83.796 69.5255C83.652 70.1039 83.7019 70.6872 83.9457 71.2754L83.1682 70.8556C82.9244 70.2673 82.8875 69.648 83.0576 68.9975C83.2194 68.3549 83.6109 67.7383 84.2322 67.1478Z" fill="white"/>
<path d="M67.6931 84.0406C68.169 83.4701 68.6983 82.9963 69.2809 82.6191C69.8722 82.2493 70.4116 82.022 70.8989 81.9374L71.2846 82.9737C70.8397 83.0788 70.3553 83.2848 69.8312 83.5918C69.316 83.9061 68.857 84.3046 68.4543 84.7873C67.9052 85.4454 67.6108 86.0035 67.571 86.4615C67.54 86.9268 67.6957 87.3022 68.0379 87.5877C68.2924 87.8001 68.5594 87.8814 68.8389 87.8318C69.1199 87.7983 69.4053 87.6792 69.6951 87.4745C69.9938 87.2772 70.3049 87.0381 70.6284 86.7573C70.9519 86.4766 71.2843 86.2031 71.6254 85.937C71.9591 85.6796 72.3016 85.4742 72.6529 85.3208C73.013 85.1747 73.381 85.1171 73.7571 85.148C74.1258 85.1877 74.5076 85.3723 74.9025 85.7018C75.2798 86.0166 75.5298 86.4038 75.6525 86.8633C75.7752 87.3229 75.7515 87.824 75.5814 88.3668C75.4128 88.9257 75.0833 89.4991 74.5927 90.0871C74.2193 90.5346 73.7845 90.9309 73.2883 91.276C72.8008 91.6283 72.3397 91.8688 71.9051 91.9973L71.4952 90.9633C71.9621 90.8318 72.3858 90.6272 72.7664 90.3494C73.1558 90.0789 73.4969 89.7682 73.7898 89.4172C74.3096 88.7941 74.5843 88.2419 74.6138 87.7605C74.6448 87.2952 74.4936 86.9234 74.1601 86.6452C73.8968 86.4255 73.6247 86.3325 73.3437 86.366C73.0554 86.4082 72.7576 86.5244 72.4502 86.7145C72.1443 86.9206 71.8332 87.1597 71.517 87.4317C71.1934 87.7124 70.8604 87.9778 70.5178 88.2279C70.1767 88.494 69.8305 88.7038 69.4793 88.8572C69.1294 89.0268 68.7702 89.0917 68.4014 89.052C68.0342 89.0283 67.6619 88.8591 67.2845 88.5443C66.8808 88.2075 66.625 87.8006 66.517 87.3235C66.4104 86.8625 66.4532 86.3474 66.6452 85.7783C66.8386 85.2253 67.188 84.6461 67.6931 84.0406Z" fill="white"/>
<path d="M61.0994 107.635C60.7005 108.248 60.2317 108.706 59.6931 109.01C59.1578 109.33 58.5665 109.463 57.9192 109.41C57.2657 109.367 56.575 109.109 55.847 108.635L51.4644 105.783L52.1282 104.763L56.4102 107.549C57.2053 108.066 57.9349 108.255 58.599 108.114C59.2664 107.99 59.8339 107.568 60.3014 106.85C60.6504 106.313 60.8456 105.772 60.8871 105.226C60.9319 104.696 60.82 104.187 60.5515 103.699C60.2862 103.226 59.8663 102.803 59.2915 102.429L55.3256 99.8489L55.9894 98.8287L66.6513 105.766L65.9875 106.786L60.8002 103.411L61.3191 103.462C61.7093 104.057 61.8863 104.718 61.85 105.444C61.8233 106.176 61.5731 106.907 61.0994 107.635Z" fill="white"/>
<path d="M42.9031 120.256L50.9002 124.385L50.3418 125.466L42.3447 121.338L42.9031 120.256ZM52.384 125.846C52.4994 125.622 52.6725 125.474 52.9035 125.4C53.1344 125.326 53.3566 125.344 53.5698 125.454C53.7831 125.565 53.9215 125.733 53.985 125.958C54.0587 126.189 54.0378 126.416 53.9225 126.64C53.8071 126.863 53.6391 127.014 53.4183 127.093C53.1974 127.172 52.9804 127.157 52.7672 127.047C52.5437 126.931 52.3952 126.758 52.3215 126.527C52.2426 126.306 52.2634 126.079 52.384 125.846Z" fill="white"/>
<path d="M35.189 136.163C35.5083 135.355 35.9767 134.699 36.5943 134.193C37.2183 133.703 37.9227 133.397 38.7074 133.277C39.5028 133.161 40.315 133.267 41.144 133.595C41.9837 133.927 42.6489 134.405 43.1396 135.029C43.6303 135.653 43.9303 136.355 44.0397 137.136C44.1491 137.916 44.042 138.716 43.7186 139.534C43.391 140.363 42.9205 141.025 42.3071 141.52C41.6895 142.025 40.9904 142.333 40.2099 142.442C39.4251 142.562 38.6129 142.456 37.7733 142.125C36.9442 141.797 36.279 141.319 35.7777 140.691C35.2828 140.077 34.9774 139.373 34.8616 138.578C34.7565 137.786 34.8656 136.982 35.189 136.163ZM36.1935 136.56C35.954 137.166 35.8748 137.755 35.9557 138.328C36.0472 138.905 36.2849 139.423 36.6689 139.882C37.0592 140.355 37.5785 140.72 38.2269 140.977C38.8859 141.237 39.5144 141.326 40.1126 141.243C40.7065 141.17 41.2287 140.952 41.6793 140.59C42.1404 140.231 42.4886 139.755 42.7238 139.159C42.959 138.564 43.0309 137.978 42.9393 137.401C42.8584 136.829 42.6281 136.307 42.2484 135.838C41.8687 135.368 41.3494 135.003 40.6904 134.743C40.042 134.487 39.4135 134.398 38.8047 134.477C38.2066 134.56 37.6769 134.781 37.2158 135.139C36.7653 135.502 36.4245 135.976 36.1935 136.56Z" fill="white"/>
<path d="M35.6492 162.827C35.4692 163.535 35.1731 164.121 34.7611 164.582C34.3574 165.057 33.8407 165.374 33.2108 165.532C32.5782 165.702 31.841 165.68 30.9992 165.466L25.9315 164.178L26.2312 162.999L31.1825 164.257C32.1019 164.49 32.8533 164.433 33.4367 164.086C34.0283 163.753 34.4297 163.171 34.6407 162.34C34.7983 161.72 34.8088 161.145 34.6722 160.615C34.5439 160.099 34.2739 159.653 33.8624 159.277C33.459 158.915 32.9251 158.65 32.2605 158.481L27.6747 157.316L27.9744 156.137L36.6973 158.353L36.4103 159.482L34.0177 158.875L34.5128 158.806C35.0738 159.243 35.4542 159.811 35.6538 160.511C35.8646 161.213 35.8631 161.985 35.6492 162.827Z" fill="white"/>
<path d="M32.1331 203.942L32.0841 205.193L20.0933 204.723L20.1423 203.473L32.1331 203.942ZM20.4363 195.97L20.486 194.702L32.4767 195.172L32.4271 196.44L20.4363 195.97ZM25.6705 203.809L25.9745 196.05L27.088 196.093L26.7839 203.853L25.6705 203.809Z" fill="white"/>
<path d="M20.3565 226.631C20.2719 225.766 20.389 224.968 20.7079 224.236C21.0392 223.515 21.5266 222.922 22.1701 222.457C22.825 221.991 23.596 221.715 24.4832 221.628C25.3818 221.54 26.1918 221.662 26.9132 221.993C27.6346 222.324 28.222 222.812 28.6755 223.457C29.129 224.102 29.3986 224.862 29.4843 225.738C29.5711 226.625 29.4545 227.429 29.1346 228.149C28.8157 228.88 28.334 229.473 27.6894 229.927C27.0459 230.391 26.2748 230.668 25.3763 230.756C24.4891 230.843 23.6791 230.721 22.9463 230.391C22.226 230.071 21.6329 229.583 21.1669 228.928C20.7123 228.272 20.4421 227.506 20.3565 226.631ZM21.4313 226.525C21.4948 227.174 21.6931 227.734 22.0265 228.207C22.3711 228.678 22.819 229.031 23.3701 229.264C23.9336 229.507 24.5623 229.595 25.2561 229.527C25.9613 229.458 26.561 229.25 27.0553 228.903C27.5507 228.568 27.9161 228.136 28.1515 227.608C28.3983 227.078 28.4905 226.495 28.4282 225.858C28.3658 225.221 28.1623 224.667 27.8176 224.195C27.4843 223.723 27.0416 223.364 26.4894 223.12C25.9373 222.875 25.3086 222.787 24.6034 222.856C23.9096 222.924 23.3098 223.132 22.8042 223.48C22.3099 223.827 21.9394 224.265 21.6926 224.795C21.4572 225.323 21.3701 225.9 21.4313 226.525Z" fill="white"/>
<path d="M23.7982 251.341C23.6273 250.594 23.6173 249.911 23.7683 249.29C23.9192 248.669 24.2375 248.139 24.7231 247.699C25.2112 247.271 25.873 246.961 26.7085 246.77L31.8052 245.603L32.0769 246.789L27.1139 247.926C26.1781 248.14 25.523 248.53 25.1486 249.097C24.7878 249.672 24.7031 250.377 24.8944 251.213C25.0347 251.825 25.2785 252.326 25.6256 252.716C25.9864 253.114 26.4331 253.375 26.9657 253.499C27.5009 253.635 28.1027 253.626 28.7711 253.473L33.3664 252.421L33.6381 253.607L24.8652 255.616L24.605 254.48L27.0112 253.929L26.6189 254.212C25.909 254.081 25.3026 253.763 24.7998 253.257C24.3106 252.759 23.9768 252.12 23.7982 251.341Z" fill="white"/>
<path d="M29.9608 274.192C29.7105 273.493 29.5706 272.796 29.541 272.103C29.5222 271.406 29.5999 270.826 29.7741 270.363L30.8628 270.556C30.7278 270.993 30.6596 271.515 30.6584 272.122C30.668 272.725 30.7787 273.323 30.9904 273.915C31.2791 274.722 31.6108 275.259 31.9853 275.525C32.3706 275.788 32.7731 275.844 33.1927 275.694C33.5048 275.583 33.7103 275.394 33.8094 275.128C33.923 274.869 33.9651 274.562 33.9357 274.209C33.9171 273.851 33.8688 273.462 33.7909 273.04C33.713 272.619 33.6459 272.194 33.5896 271.765C33.5371 271.347 33.5338 270.948 33.5797 270.567C33.6363 270.183 33.7734 269.836 33.9908 269.528C34.212 269.23 34.5647 268.995 35.049 268.822C35.5117 268.656 35.9722 268.637 36.4304 268.764C36.8887 268.892 37.3086 269.166 37.6901 269.588C38.0863 270.017 38.4133 270.592 38.6713 271.313C38.8676 271.861 38.9886 272.437 39.0343 273.04C39.0908 273.639 39.0641 274.158 38.9544 274.598L37.8554 274.427C37.9789 273.958 38.0175 273.489 37.9711 273.02C37.9355 272.547 37.8407 272.095 37.6867 271.665C37.4133 270.901 37.0767 270.384 36.6768 270.114C36.2915 269.852 35.8944 269.794 35.4855 269.94C35.1627 270.055 34.9444 270.243 34.8308 270.502C34.721 270.772 34.6701 271.087 34.678 271.449C34.7005 271.817 34.7487 272.206 34.8228 272.617C34.9006 273.038 34.9604 273.46 35.0022 273.882C35.0586 274.311 35.0638 274.715 35.0179 275.096C34.9866 275.483 34.8603 275.826 34.639 276.124C34.4324 276.428 34.0977 276.663 33.635 276.829C33.14 277.006 32.6596 277.02 32.1936 276.871C31.7423 276.729 31.3201 276.431 30.927 275.977C30.5485 275.53 30.2264 274.935 29.9608 274.192Z" fill="white"/>
<path d="M38.419 295.255C38.0038 294.415 37.8134 293.592 37.8478 292.784C37.8925 291.972 38.1336 291.234 38.5711 290.572C39.0188 289.904 39.6423 289.373 40.4415 288.978C41.2406 288.583 42.0311 288.403 42.8129 288.437C43.5998 288.482 44.3143 288.715 44.9563 289.137C45.6137 289.564 46.1272 290.152 46.4968 290.9C46.8715 291.658 47.029 292.415 46.9693 293.171C46.9249 293.933 46.6737 294.637 46.2158 295.284C45.7682 295.926 45.1397 296.447 44.3303 296.847C44.279 296.872 44.2202 296.895 44.1536 296.915C44.1024 296.94 44.046 296.968 43.9846 296.999L40.5135 289.975L41.328 289.573L44.5105 296.012L43.9751 295.741C44.5591 295.453 45.0132 295.069 45.3374 294.59C45.6769 294.116 45.8684 293.601 45.9119 293.044C45.9554 292.487 45.8378 291.927 45.5593 291.363C45.2859 290.81 44.9123 290.376 44.4384 290.062C43.9645 289.748 43.4363 289.582 42.8537 289.564C42.2711 289.546 41.6827 289.684 41.0885 289.978L40.9194 290.061C40.3047 290.365 39.8275 290.767 39.4879 291.266C39.1635 291.771 38.9871 292.329 38.9587 292.943C38.9457 293.561 39.0936 294.183 39.4024 294.808C39.6455 295.299 39.9579 295.712 40.3397 296.046C40.7265 296.391 41.1752 296.628 41.6857 296.758L41.2826 297.722C40.675 297.576 40.1244 297.287 39.6306 296.856C39.1419 296.434 38.738 295.901 38.419 295.255Z" fill="white"/>
<path d="M57.1279 326.789L65.7849 320.161L63.2213 316.813L64.0924 316.146L69.9908 323.85L69.1197 324.517L66.5561 321.168L57.8991 327.796L57.1279 326.789Z" fill="white"/>
<path d="M80.0438 340.136C80.5572 340.657 80.9046 341.213 81.0861 341.805C81.2837 342.396 81.2873 343.002 81.0968 343.623C80.9143 344.252 80.5137 344.871 79.895 345.481L76.1705 349.151L75.3162 348.284L78.9553 344.698C79.631 344.032 79.9714 343.36 79.9764 342.681C79.9976 342.003 79.7074 341.358 79.1059 340.748C78.6567 340.292 78.1701 339.985 77.6459 339.827C77.138 339.67 76.6167 339.67 76.0822 339.828C75.5638 339.986 75.0604 340.305 74.5719 340.787L71.2015 344.107L70.3473 343.24L79.4083 334.313L80.2625 335.18L75.8541 339.523L76.0154 339.027C76.68 338.774 77.3631 338.742 78.0647 338.934C78.7745 339.117 79.4342 339.518 80.0438 340.136Z" fill="white"/>
<path d="M91.1897 363.024C90.4542 362.443 89.9287 361.781 89.6134 361.037C89.3051 360.284 89.2064 359.514 89.3173 358.728C89.4354 357.933 89.7706 357.186 90.3229 356.486C90.8753 355.787 91.5119 355.285 92.2329 354.98C92.9627 354.683 93.7082 354.587 94.4692 354.693C95.2463 354.796 95.9623 355.107 96.6171 355.624C97.2809 356.148 97.748 356.764 98.0186 357.473C98.3051 358.18 98.3804 358.923 98.2445 359.704C98.1156 360.476 97.7714 361.216 97.212 361.925C97.1766 361.97 97.1331 362.016 97.0817 362.062C97.0463 362.107 97.0073 362.157 96.9648 362.21L90.8158 357.356L91.3788 356.643L97.0165 361.094L96.4167 361.079C96.8204 360.567 97.0659 360.026 97.1532 359.454C97.2566 358.881 97.2084 358.333 97.0087 357.811C96.809 357.29 96.4625 356.834 95.9691 356.445C95.4847 356.062 94.9612 355.831 94.3984 355.751C93.8357 355.67 93.2873 355.747 92.7534 355.981C92.2194 356.214 91.7471 356.591 91.3363 357.112L91.2195 357.26C90.7946 357.798 90.5359 358.365 90.4433 358.962C90.3668 359.557 90.4473 360.137 90.6848 360.703C90.9383 361.268 91.3387 361.766 91.8859 362.198C92.3164 362.538 92.7758 362.776 93.264 362.914C93.7611 363.059 94.2681 363.081 94.7851 362.979L94.8347 364.023C94.2233 364.152 93.602 364.128 92.9708 363.95C92.3485 363.779 91.7549 363.47 91.1897 363.024Z" fill="white"/>
<path d="M123.376 377.425L129.02 380.319L128.519 381.295L122.875 378.401L123.376 377.425ZM120.674 382.994L119.545 382.415L125.021 371.737L132.343 375.492L131.842 376.469L125.649 373.292L120.674 382.994Z" fill="white"/>
<path d="M145.944 394.599L146.63 392.732L146.694 392.409L147.842 389.287C148.107 388.569 148.106 387.941 147.84 387.405C147.585 386.873 147.061 386.461 146.267 386.169C145.72 385.968 145.167 385.868 144.606 385.869C144.046 385.87 143.539 385.957 143.085 386.132L142.884 385.089C143.447 384.883 144.064 384.793 144.736 384.821C145.411 384.838 146.082 384.969 146.747 385.213C147.841 385.616 148.582 386.199 148.971 386.963C149.375 387.72 149.373 388.651 148.967 389.756L147.038 395.001L145.944 394.599ZM143.002 393.608C142.369 393.375 141.854 393.07 141.457 392.693C141.075 392.309 140.828 391.889 140.715 391.434C140.606 390.968 140.641 390.493 140.818 390.01C140.98 389.571 141.228 389.211 141.562 388.932C141.91 388.646 142.36 388.483 142.911 388.442C143.477 388.394 144.162 388.518 144.966 388.814L147.878 389.885L147.565 390.738L144.685 389.679C143.869 389.379 143.248 389.315 142.819 389.486C142.402 389.661 142.114 389.963 141.956 390.392C141.779 390.875 141.825 391.33 142.094 391.758C142.362 392.186 142.835 392.524 143.511 392.772C144.154 393.009 144.76 393.067 145.328 392.947C145.91 392.82 146.411 392.518 146.831 392.039L146.798 392.922C146.378 393.401 145.839 393.708 145.181 393.843C144.533 393.982 143.807 393.904 143.002 393.608Z" fill="white"/>
<path d="M165.47 400.965C164.747 400.791 164.088 400.526 163.492 400.17C162.899 399.804 162.457 399.421 162.165 399.021L162.924 398.217C163.215 398.569 163.614 398.912 164.121 399.246C164.631 399.569 165.191 399.805 165.802 399.952C166.636 400.153 167.266 400.17 167.695 400.003C168.126 399.825 168.393 399.52 168.498 399.086C168.576 398.764 168.531 398.489 168.362 398.26C168.208 398.023 167.975 397.82 167.663 397.65C167.354 397.47 167.002 397.297 166.607 397.131C166.212 396.965 165.82 396.788 165.43 396.6C165.052 396.414 164.716 396.198 164.423 395.951C164.133 395.693 163.918 395.388 163.78 395.037C163.652 394.689 163.649 394.265 163.769 393.765C163.885 393.287 164.121 392.892 164.479 392.578C164.837 392.265 165.297 392.065 165.859 391.977C166.435 391.881 167.095 391.923 167.839 392.102C168.406 392.239 168.953 392.454 169.482 392.746C170.014 393.027 170.434 393.334 170.741 393.667L169.995 394.492C169.671 394.132 169.3 393.842 168.882 393.624C168.468 393.395 168.038 393.226 167.594 393.119C166.805 392.928 166.188 392.926 165.743 393.113C165.312 393.291 165.046 393.591 164.944 394.013C164.863 394.347 164.9 394.632 165.055 394.869C165.22 395.109 165.456 395.324 165.763 395.516C166.083 395.699 166.435 395.872 166.819 396.036C167.214 396.201 167.599 396.383 167.975 396.579C168.364 396.767 168.706 396.985 168.999 397.232C169.306 397.471 169.523 397.764 169.65 398.113C169.792 398.452 169.805 398.861 169.689 399.339C169.566 399.85 169.314 400.259 168.934 400.567C168.568 400.867 168.087 401.056 167.492 401.136C166.91 401.207 166.236 401.15 165.47 400.965Z" fill="white"/>
<path d="M189.546 396.438C190.272 396.525 190.891 396.742 191.402 397.091C191.925 397.429 192.306 397.9 192.545 398.504C192.796 399.11 192.869 399.843 192.767 400.706L192.149 405.898L190.94 405.754L191.544 400.681C191.656 399.739 191.502 399.002 191.082 398.468C190.675 397.925 190.046 397.603 189.195 397.501C188.559 397.426 187.988 397.49 187.48 397.694C186.985 397.888 186.578 398.214 186.259 398.671C185.952 399.118 185.759 399.682 185.678 400.363L185.118 405.061L183.91 404.917L185.413 392.286L186.622 392.43L185.89 398.575L185.707 398.087C186.067 397.474 186.581 397.023 187.249 396.734C187.918 396.434 188.683 396.335 189.546 396.438Z" fill="white"/>
<path d="M208.916 407.171L209.08 398.173L210.297 398.195L210.133 407.194L208.916 407.171ZM209.733 396.196C209.482 396.191 209.272 396.102 209.104 395.927C208.936 395.753 208.854 395.545 208.858 395.306C208.862 395.066 208.952 394.867 209.126 394.71C209.301 394.542 209.514 394.46 209.765 394.465C210.016 394.469 210.226 394.553 210.395 394.716C210.563 394.879 210.645 395.081 210.641 395.321C210.636 395.572 210.547 395.782 210.372 395.95C210.209 396.119 209.996 396.201 209.733 396.196Z" fill="white"/>
<path d="M226.594 407.051C225.729 407.122 224.933 406.992 224.206 406.662C223.49 406.32 222.904 405.823 222.45 405.172C221.994 404.51 221.729 403.735 221.656 402.847C221.582 401.947 221.717 401.139 222.059 400.423C222.402 399.707 222.899 399.127 223.55 398.683C224.202 398.24 224.966 397.982 225.843 397.91C226.732 397.837 227.533 397.966 228.249 398.297C228.975 398.627 229.56 399.118 230.004 399.77C230.459 400.42 230.723 401.196 230.797 402.095C230.87 402.984 230.736 403.792 230.394 404.519C230.063 405.235 229.567 405.82 228.904 406.276C228.242 406.72 227.472 406.979 226.594 407.051ZM226.506 405.974C227.155 405.921 227.719 405.731 228.196 405.405C228.673 405.068 229.033 404.626 229.274 404.078C229.526 403.519 229.624 402.891 229.567 402.196C229.509 401.49 229.31 400.887 228.971 400.388C228.643 399.887 228.217 399.515 227.692 399.272C227.167 399.017 226.585 398.915 225.947 398.968C225.309 399.02 224.752 399.215 224.275 399.553C223.797 399.878 223.432 400.316 223.179 400.864C222.926 401.412 222.828 402.039 222.886 402.746C222.944 403.44 223.142 404.043 223.482 404.554C223.822 405.054 224.254 405.431 224.779 405.686C225.304 405.93 225.88 406.026 226.506 405.974Z" fill="white"/>
<path d="M250.302 394.84C251.017 394.688 251.673 394.694 252.269 394.86C252.874 395.011 253.387 395.335 253.807 395.829C254.239 396.322 254.545 396.993 254.726 397.842L255.814 402.956L254.624 403.21L253.561 398.213C253.363 397.285 252.98 396.636 252.411 396.267C251.85 395.884 251.15 395.781 250.312 395.959C249.686 396.093 249.166 396.338 248.751 396.695C248.345 397.038 248.064 397.478 247.91 398.013C247.764 398.535 247.762 399.131 247.905 399.802L248.889 404.43L247.698 404.683L245.826 395.88L246.966 395.637L247.48 398.052L247.199 397.638C247.343 396.942 247.684 396.349 248.223 395.861C248.759 395.361 249.452 395.021 250.302 394.84Z" fill="white"/>
<path d="M288.729 379.8L289.873 379.291L294.757 390.252L293.614 390.761L288.729 379.8ZM286.755 393.817L285.597 394.334L280.712 383.373L281.871 382.856L286.755 393.817ZM291.47 385.655L284.376 388.815L283.923 387.798L291.016 384.637L291.47 385.655Z" fill="white"/>
<path d="M314.287 380.322C313.549 380.781 312.781 381.029 311.984 381.066C311.191 381.089 310.443 380.914 309.741 380.543C309.034 380.161 308.445 379.592 307.974 378.835C307.498 378.068 307.249 377.288 307.226 376.494C307.204 375.701 307.382 374.958 307.759 374.266C308.137 373.574 308.699 372.996 309.447 372.532C310.204 372.061 310.976 371.81 311.764 371.778C312.561 371.741 313.306 371.91 313.998 372.288C314.699 372.659 315.288 373.228 315.765 373.995C316.235 374.753 316.484 375.533 316.512 376.336C316.544 377.124 316.37 377.871 315.989 378.579C315.601 379.277 315.034 379.858 314.287 380.322ZM313.717 379.405C314.27 379.061 314.685 378.635 314.961 378.127C315.232 377.609 315.349 377.052 315.315 376.454C315.284 375.841 315.084 375.239 314.716 374.647C314.342 374.045 313.89 373.599 313.361 373.309C312.841 373.013 312.292 372.877 311.714 372.9C311.13 372.912 310.566 373.088 310.022 373.426C309.479 373.763 309.072 374.191 308.801 374.709C308.525 375.217 308.399 375.773 308.424 376.376C308.449 376.979 308.649 377.582 309.023 378.184C309.391 378.776 309.842 379.222 310.378 379.521C310.908 379.811 311.465 379.949 312.049 379.936C312.627 379.914 313.183 379.737 313.717 379.405Z" fill="white"/>
<path d="M334.923 366.302C334.329 366.785 333.721 367.097 333.097 367.236C332.474 367.375 331.857 367.324 331.248 367.083C330.648 366.835 330.078 366.379 329.536 365.714L326.235 361.66L327.178 360.891L330.393 364.839C331 365.584 331.64 365.998 332.313 366.084C332.989 366.153 333.659 365.916 334.323 365.375C334.811 364.978 335.152 364.538 335.348 364.054C335.545 363.555 335.582 363.038 335.457 362.506C335.342 361.966 335.068 361.43 334.635 360.899L331.658 357.243L332.602 356.475L338.285 363.453L337.381 364.189L335.822 362.275L336.25 362.502C336.447 363.196 336.43 363.881 336.198 364.556C335.968 365.214 335.543 365.797 334.923 366.302Z" fill="white"/>
<path d="M352.689 350.664C352.173 351.198 351.61 351.631 351.001 351.965C350.384 352.29 349.83 352.477 349.337 352.526L349.029 351.464C349.48 351.392 349.979 351.222 350.524 350.954C351.061 350.679 351.548 350.315 351.985 349.863C352.581 349.247 352.915 348.712 352.989 348.258C353.054 347.797 352.926 347.411 352.606 347.101C352.368 346.87 352.107 346.77 351.825 346.799C351.542 346.811 351.249 346.909 350.945 347.092C350.632 347.267 350.305 347.483 349.961 347.739C349.618 347.995 349.267 348.243 348.907 348.484C348.555 348.716 348.198 348.895 347.837 349.023C347.467 349.142 347.096 349.172 346.723 349.114C346.358 349.047 345.991 348.835 345.621 348.477C345.268 348.136 345.047 347.731 344.959 347.264C344.87 346.797 344.931 346.298 345.14 345.77C345.349 345.225 345.72 344.677 346.252 344.127C346.658 343.708 347.12 343.345 347.641 343.037C348.153 342.721 348.63 342.515 349.073 342.419L349.406 343.48C348.931 343.577 348.493 343.75 348.093 343.999C347.685 344.24 347.322 344.525 347.004 344.854C346.44 345.437 346.125 345.968 346.06 346.445C345.995 346.907 346.119 347.289 346.431 347.591C346.677 347.829 346.942 347.942 347.225 347.93C347.515 347.909 347.821 347.815 348.141 347.648C348.462 347.465 348.789 347.249 349.125 347.001C349.468 346.745 349.82 346.505 350.18 346.28C350.539 346.04 350.9 345.856 351.262 345.729C351.623 345.586 351.986 345.547 352.351 345.614C352.715 345.665 353.074 345.861 353.428 346.202C353.805 346.568 354.031 346.993 354.103 347.476C354.176 347.944 354.095 348.454 353.862 349.008C353.628 349.545 353.237 350.097 352.689 350.664Z" fill="white"/>
<path d="M367.835 333.758C367.266 334.503 366.611 335.038 365.872 335.364C365.124 335.684 364.356 335.794 363.568 335.695C362.771 335.588 362.019 335.264 361.311 334.722C360.603 334.18 360.092 333.551 359.777 332.835C359.469 332.11 359.362 331.366 359.456 330.603C359.548 329.825 359.848 329.104 360.355 328.442C360.869 327.77 361.479 327.294 362.183 327.013C362.886 326.716 363.628 326.63 364.411 326.754C365.185 326.871 365.93 327.204 366.647 327.753C366.692 327.788 366.739 327.831 366.786 327.881C366.832 327.916 366.882 327.954 366.936 327.996L362.173 334.217L361.452 333.664L365.819 327.961L365.813 328.561C365.295 328.165 364.75 327.928 364.177 327.849C363.602 327.754 363.055 327.81 362.537 328.018C362.018 328.225 361.568 328.578 361.186 329.077C360.81 329.567 360.587 330.094 360.515 330.658C360.443 331.222 360.528 331.769 360.77 332.3C361.011 332.83 361.395 333.297 361.921 333.7L362.071 333.814C362.616 334.231 363.187 334.482 363.785 334.565C364.381 334.633 364.96 334.544 365.523 334.298C366.083 334.036 366.575 333.628 366.999 333.075C367.332 332.639 367.564 332.176 367.695 331.686C367.832 331.187 367.847 330.68 367.737 330.164L368.78 330.099C368.918 330.708 368.903 331.33 368.734 331.964C368.573 332.589 368.273 333.187 367.835 333.758Z" fill="white"/>
<path d="M387.836 303.028L378.061 298.197L376.193 301.978L375.209 301.492L379.508 292.793L380.492 293.28L378.623 297.06L388.398 301.891L387.836 303.028Z" fill="white"/>
<path d="M389.665 276.571C389.905 275.881 390.25 275.323 390.7 274.899C391.143 274.46 391.685 274.188 392.326 274.084C392.971 273.97 393.704 274.055 394.524 274.34L399.463 276.056L399.063 277.206L394.238 275.529C393.342 275.218 392.588 275.21 391.978 275.506C391.359 275.787 390.91 276.332 390.628 277.142C390.418 277.747 390.359 278.319 390.449 278.858C390.533 279.384 390.764 279.851 391.142 280.261C391.513 280.656 392.022 280.966 392.67 281.191L397.139 282.744L396.739 283.894L384.724 279.718L385.124 278.568L390.969 280.6L390.453 280.675C389.932 280.191 389.602 279.592 389.462 278.878C389.313 278.161 389.38 277.392 389.665 276.571Z" fill="white"/>
<path d="M405.259 256.449C405.063 257.365 404.702 258.13 404.174 258.742C403.635 259.351 402.989 259.78 402.235 260.029C401.47 260.275 400.651 260.305 399.779 260.119C398.907 259.933 398.175 259.584 397.583 259.073C396.994 258.55 396.578 257.924 396.336 257.194C396.085 256.451 396.047 255.672 396.221 254.856C396.397 254.029 396.743 253.337 397.259 252.781C397.766 252.211 398.399 251.815 399.16 251.591C399.909 251.365 400.725 251.346 401.608 251.534C401.664 251.546 401.724 251.565 401.789 251.59C401.845 251.602 401.906 251.615 401.974 251.63L400.341 259.292L399.452 259.103L400.949 252.078L401.201 252.622C400.564 252.486 399.97 252.506 399.419 252.68C398.858 252.841 398.389 253.127 398.009 253.537C397.63 253.947 397.374 254.459 397.243 255.074C397.115 255.678 397.139 256.249 397.316 256.79C397.493 257.33 397.805 257.788 398.25 258.163C398.696 258.538 399.243 258.795 399.892 258.933L400.076 258.973C400.747 259.116 401.37 259.096 401.946 258.915C402.513 258.721 402.998 258.392 403.401 257.928C403.795 257.451 404.064 256.872 404.209 256.19C404.324 255.654 404.335 255.136 404.242 254.637C404.152 254.127 403.947 253.663 403.628 253.244L404.542 252.738C404.928 253.229 405.181 253.797 405.301 254.442C405.423 255.076 405.409 255.744 405.259 256.449Z" fill="white"/>
<path d="M403.931 221.213L404.029 214.871L405.126 214.888L405.028 221.23L403.931 221.213ZM410.121 221.172L410.101 222.44L398.103 222.254L398.23 214.027L399.327 214.044L399.219 221.003L410.121 221.172Z" fill="white"/>
<path d="M409.346 193.375L407.369 193.585L407.05 193.671L403.743 194.023C402.982 194.104 402.419 194.382 402.056 194.857C401.692 195.321 401.554 195.974 401.644 196.815C401.706 197.394 401.861 197.935 402.11 198.438C402.358 198.94 402.661 199.356 403.018 199.686L402.173 200.327C401.738 199.914 401.384 199.4 401.112 198.785C400.829 198.172 400.649 197.513 400.574 196.808C400.451 195.649 400.646 194.726 401.159 194.039C401.659 193.342 402.495 192.932 403.665 192.807L409.223 192.216L409.346 193.375ZM409.759 196.451C409.831 197.122 409.785 197.719 409.622 198.242C409.447 198.754 409.18 199.162 408.822 199.465C408.452 199.768 408.011 199.947 407.5 200.002C407.034 200.051 406.602 199.988 406.204 199.812C405.793 199.626 405.448 199.295 405.167 198.819C404.874 198.333 404.682 197.664 404.591 196.812L404.263 193.726L405.167 193.63L405.491 196.681C405.583 197.545 405.801 198.131 406.144 198.439C406.486 198.736 406.884 198.861 407.339 198.812C407.85 198.758 408.238 198.515 408.502 198.085C408.767 197.655 408.861 197.081 408.785 196.365C408.712 195.684 408.497 195.115 408.138 194.659C407.766 194.192 407.273 193.877 406.658 193.713L407.464 193.351C408.079 193.515 408.593 193.863 409.006 194.394C409.418 194.913 409.669 195.599 409.759 196.451Z" fill="white"/>
<path d="M406.416 173.048C406.579 173.773 406.633 174.481 406.578 175.173C406.512 175.867 406.364 176.433 406.134 176.872L405.077 176.547C405.265 176.13 405.396 175.62 405.471 175.018C405.535 174.418 405.498 173.811 405.36 173.198C405.172 172.361 404.908 171.788 404.569 171.478C404.218 171.17 403.826 171.065 403.391 171.163C403.068 171.236 402.841 171.398 402.71 171.65C402.566 171.894 402.486 172.193 402.473 172.547C402.447 172.904 402.448 173.297 402.474 173.724C402.5 174.152 402.515 174.582 402.518 175.015C402.52 175.436 402.474 175.833 402.382 176.205C402.279 176.58 402.101 176.907 401.848 177.186C401.592 177.455 401.213 177.646 400.711 177.759C400.232 177.867 399.772 177.829 399.333 177.647C398.894 177.465 398.51 177.141 398.183 176.676C397.842 176.202 397.588 175.592 397.419 174.845C397.291 174.276 397.241 173.69 397.27 173.086C397.286 172.485 397.376 171.973 397.539 171.549L398.609 171.853C398.429 172.304 398.333 172.765 398.322 173.236C398.3 173.709 398.339 174.169 398.44 174.615C398.618 175.407 398.889 175.961 399.253 176.277C399.603 176.585 399.99 176.691 400.414 176.595C400.749 176.52 400.988 176.361 401.132 176.117C401.274 175.863 401.363 175.556 401.4 175.196C401.422 174.828 401.422 174.436 401.398 174.019C401.372 173.592 401.364 173.166 401.374 172.742C401.37 172.309 401.415 171.907 401.507 171.535C401.585 171.154 401.752 170.829 402.008 170.561C402.25 170.284 402.611 170.091 403.09 169.983C403.603 169.868 404.082 169.913 404.526 170.117C404.957 170.313 405.339 170.66 405.674 171.159C405.995 171.649 406.243 172.279 406.416 173.048Z" fill="white"/>
<path d="M391.703 153.46C391.459 152.77 391.38 152.119 391.467 151.507C391.539 150.888 391.793 150.337 392.228 149.856C392.661 149.364 393.286 148.973 394.105 148.683L399.034 146.94L399.44 148.087L394.624 149.791C393.729 150.107 393.136 150.571 392.844 151.184C392.536 151.789 392.526 152.496 392.812 153.304C393.025 153.908 393.336 154.392 393.743 154.757C394.137 155.115 394.609 155.336 395.16 155.42C395.696 155.497 396.287 155.421 396.934 155.192L401.395 153.615L401.8 154.762L389.808 159.003L389.402 157.856L395.237 155.792L394.881 156.173C394.171 156.121 393.539 155.859 392.985 155.389C392.42 154.922 391.992 154.279 391.703 153.46Z" fill="white"/>
<path d="M392.757 131.34L384.615 135.174L384.096 134.073L392.239 130.239L392.757 131.34ZM382.553 135.463C382.66 135.691 382.673 135.919 382.591 136.147C382.508 136.375 382.359 136.54 382.142 136.642C381.925 136.745 381.707 136.752 381.489 136.665C381.261 136.583 381.094 136.429 380.987 136.201C380.879 135.974 380.862 135.748 380.933 135.525C381.005 135.302 381.15 135.139 381.367 135.037C381.594 134.93 381.822 134.917 382.05 134.999C382.273 135.071 382.441 135.226 382.553 135.463Z" fill="white"/>
<path d="M384.826 115.54C385.273 116.285 385.509 117.056 385.535 117.854C385.545 118.647 385.358 119.392 384.976 120.088C384.584 120.79 384.006 121.37 383.242 121.828C382.467 122.293 381.683 122.53 380.89 122.54C380.096 122.549 379.356 122.36 378.67 121.972C377.984 121.584 377.415 121.013 376.962 120.258C376.503 119.494 376.264 118.718 376.245 117.93C376.219 117.132 376.4 116.39 376.789 115.704C377.171 115.008 377.749 114.428 378.523 113.964C379.288 113.505 380.072 113.268 380.875 113.252C381.663 113.233 382.408 113.419 383.11 113.811C383.801 114.209 384.374 114.785 384.826 115.54ZM383.9 116.095C383.565 115.537 383.146 115.115 382.642 114.831C382.129 114.553 381.573 114.426 380.975 114.452C380.362 114.473 379.756 114.663 379.158 115.022C378.551 115.387 378.098 115.832 377.8 116.357C377.496 116.872 377.351 117.419 377.365 117.997C377.369 118.581 377.535 119.148 377.864 119.697C378.194 120.245 378.615 120.659 379.129 120.937C379.632 121.222 380.186 121.356 380.79 121.34C381.393 121.325 381.999 121.134 382.607 120.77C383.204 120.411 383.657 119.966 383.965 119.435C384.263 118.91 384.41 118.355 384.406 117.771C384.392 117.193 384.224 116.634 383.9 116.095Z" fill="white"/>
<path d="M363.386 99.6826C362.933 99.1084 362.649 98.5174 362.533 97.9098C362.402 97.3003 362.465 96.6974 362.722 96.1012C362.973 95.496 363.439 94.9245 364.121 94.3865L368.226 91.148L368.979 92.1035L364.969 95.2677C364.224 95.8552 363.812 96.4861 363.732 97.1602C363.637 97.8325 363.854 98.5051 364.385 99.178C364.782 99.6805 365.232 100.039 365.736 100.253C366.223 100.465 366.741 100.522 367.29 100.424C367.822 100.324 368.358 100.062 368.896 99.6369L372.611 96.7064L373.365 97.6619L366.299 103.236L365.577 102.321L367.515 100.792L367.268 101.227C366.58 101.406 365.898 101.362 365.221 101.095C364.536 100.835 363.924 100.365 363.386 99.6826Z" fill="white"/>
<path d="M332.895 71.8764L331.932 71.0767L339.601 61.8465L340.563 62.6462L332.895 71.8764ZM346.339 67.4443L347.315 68.255L339.646 77.4852L338.671 76.6745L346.339 67.4443ZM336.933 66.8286L342.906 71.7911L342.194 72.6481L336.221 67.6856L336.933 66.8286Z" fill="white"/>
<path d="M322.055 48.7264C322.792 49.1852 323.354 49.7637 323.741 50.4619C324.112 51.1638 324.286 51.9115 324.263 52.705C324.235 53.5082 323.985 54.2883 323.514 55.0452C323.037 55.8118 322.448 56.3806 321.746 56.7515C321.044 57.1225 320.299 57.2918 319.512 57.2595C318.724 57.2272 317.957 56.9786 317.21 56.5137C316.453 56.0428 315.886 55.4613 315.509 54.7692C315.122 54.071 314.945 53.3281 314.977 52.5406C315 51.7471 315.25 50.967 315.727 50.2004C316.198 49.4435 316.787 48.8747 317.495 48.4941C318.187 48.1171 318.935 47.943 319.738 47.9716C320.535 48.0099 321.307 48.2615 322.055 48.7264ZM321.484 49.6434C320.931 49.2993 320.365 49.1157 319.788 49.0927C319.204 49.0793 318.652 49.2204 318.131 49.5158C317.595 49.815 317.143 50.2605 316.775 50.8524C316.4 51.4541 316.201 52.0566 316.175 52.6599C316.14 53.2572 316.261 53.81 316.537 54.3182C316.807 54.8361 317.213 55.2641 317.757 55.6022C318.3 55.9403 318.864 56.116 319.448 56.1293C320.026 56.1524 320.58 56.0192 321.11 55.7298C321.64 55.4404 322.092 54.9948 322.466 54.3932C322.834 53.8013 323.034 53.1988 323.066 52.5857C323.091 51.9824 322.969 51.4217 322.699 50.9038C322.423 50.3956 322.018 49.9754 321.484 49.6434Z" fill="white"/>
<path d="M300.35 36.4239C301.047 36.7423 301.595 37.1503 301.996 37.6478C302.397 38.1453 302.624 38.7204 302.677 39.3732C302.72 40.0212 302.563 40.7349 302.207 41.5144L300.032 46.2693L298.925 45.7631L301.043 41.1329C301.442 40.2599 301.531 39.5025 301.309 38.8607C301.072 38.2245 300.564 37.7282 299.785 37.3717C299.213 37.1103 298.667 36.9988 298.147 37.0373C297.611 37.0815 297.132 37.2771 296.71 37.6242C296.277 37.9665 295.918 38.4495 295.632 39.073L293.672 43.3602L292.565 42.854L296.308 34.6694L297.368 35.1542L296.341 37.3991L296.355 36.9154C296.891 36.4314 297.512 36.1439 298.22 36.0529C298.913 35.9675 299.623 36.0911 300.35 36.4239Z" fill="white"/>
<path d="M278.465 27.4112C279.173 27.6382 279.811 27.9509 280.379 28.3493C280.944 28.7586 281.357 29.1732 281.618 29.5931L280.802 30.3396C280.538 29.9667 280.165 29.595 279.684 29.2245C279.199 28.8649 278.658 28.5891 278.059 28.3971C277.243 28.1352 276.615 28.0718 276.176 28.2069C275.733 28.3528 275.443 28.638 275.307 29.0624C275.206 29.378 275.231 29.656 275.381 29.8965C275.518 30.1443 275.736 30.3641 276.034 30.5559C276.329 30.7586 276.667 30.9572 277.049 31.1517C277.431 31.3462 277.809 31.5515 278.184 31.7678C278.548 31.9806 278.866 32.2209 279.141 32.4889C279.411 32.7678 279.603 33.0873 279.715 33.4474C279.817 33.8041 279.789 34.2273 279.632 34.717C279.482 35.1849 279.217 35.562 278.837 35.8482C278.457 36.1344 277.984 36.3005 277.417 36.3467C276.835 36.4002 276.18 36.31 275.451 36.0761C274.896 35.898 274.366 35.6437 273.859 35.3133C273.35 34.9938 272.954 34.6567 272.672 34.302L273.476 33.534C273.773 33.9174 274.122 34.2333 274.522 34.4818C274.919 34.7412 275.335 34.9407 275.771 35.0803C276.543 35.3283 277.158 35.3755 277.615 35.2222C278.058 35.0763 278.346 34.7965 278.479 34.383C278.584 34.0565 278.568 33.7694 278.431 33.5215C278.284 33.2702 278.064 33.0377 277.773 32.8242C277.467 32.618 277.128 32.4194 276.758 32.2284C276.376 32.0339 276.005 31.8249 275.645 31.6012C275.27 31.385 274.946 31.1429 274.671 30.8749C274.383 30.6143 274.188 30.3057 274.086 29.949C273.97 29.5997 273.987 29.1911 274.138 28.7232C274.298 28.2226 274.579 27.8327 274.981 27.5535C275.368 27.2817 275.862 27.1279 276.461 27.0923C277.046 27.064 277.714 27.1703 278.465 27.4112Z" fill="white"/>
<path d="M256.603 21.3085C257.522 21.4902 258.292 21.8403 258.912 22.3588C259.529 22.8885 259.968 23.5285 260.227 24.2788C260.485 25.0402 260.527 25.8582 260.354 26.7327C260.181 27.6073 259.844 28.3443 259.341 28.9439C258.827 29.5413 258.207 29.9664 257.481 30.2191C256.742 30.4809 255.963 30.5309 255.145 30.3692C254.315 30.2053 253.619 29.8696 253.055 29.3621C252.478 28.8636 252.072 28.2359 251.837 27.4789C251.6 26.7331 251.569 25.9173 251.744 25.0315C251.755 24.9755 251.772 24.9149 251.797 24.8499C251.808 24.7938 251.82 24.7321 251.833 24.6649L259.519 26.1833L259.343 27.0747L252.296 25.6825L252.837 25.4223C252.711 26.0614 252.739 26.6553 252.922 27.204C253.091 27.7617 253.384 28.2272 253.799 28.6005C254.215 28.9739 254.731 29.2215 255.348 29.3433C255.953 29.4629 256.525 29.4302 257.062 29.2451C257.6 29.0601 258.053 28.7419 258.421 28.2905C258.79 27.8391 259.039 27.2883 259.167 26.638L259.204 26.453C259.337 25.7803 259.308 25.1573 259.119 24.584C258.916 24.0196 258.58 23.5396 258.11 23.144C257.627 22.7574 257.044 22.4965 256.36 22.3614C255.822 22.2551 255.304 22.2518 254.807 22.3516C254.298 22.4492 253.837 22.6609 253.423 22.9869L252.903 22.0804C253.389 21.687 253.953 21.4257 254.596 21.2964C255.228 21.1649 255.897 21.169 256.603 21.3085Z" fill="white"/>
</svg>
