<svg width="28" height="28" viewBox="0 0 28 28" fill="none" xmlns="http://www.w3.org/2000/svg">
<circle cx="14.0001" cy="13.7144" r="13.5714" fill="#F1F6FF"/>
<g clip-path="url(#clip0_111_245)">
<path d="M16.4773 9.91088C16.3527 9.91088 16.231 9.94783 16.1274 10.017C16.0238 10.0863 15.943 10.1846 15.8954 10.2997C15.8477 10.4148 15.8352 10.5415 15.8595 10.6637C15.8838 10.7859 15.9438 10.8981 16.0319 10.9862C16.12 11.0743 16.2322 11.1343 16.3544 11.1586C16.4766 11.1829 16.6033 11.1704 16.7184 11.1227C16.8335 11.0751 16.9318 10.9943 17.0011 10.8907C17.0703 10.7871 17.1072 10.6654 17.1072 10.5408C17.1072 10.3737 17.0409 10.2135 16.9227 10.0954C16.8046 9.97725 16.6444 9.91088 16.4773 9.91088Z" fill="#2E526B"/>
<path d="M13.6852 10.7195C13.1628 10.7195 12.6521 10.8744 12.2178 11.1647C11.7834 11.455 11.445 11.8676 11.2452 12.3503C11.0454 12.833 10.9933 13.3641 11.0954 13.8765C11.1976 14.3888 11.4494 14.8593 11.819 15.2285C12.1886 15.5977 12.6594 15.849 13.1719 15.9505C13.6843 16.0521 14.2154 15.9993 14.6978 15.799C15.1803 15.5987 15.5925 15.2597 15.8823 14.8251C16.1721 14.3904 16.3265 13.8796 16.3259 13.3571C16.3251 12.6573 16.0465 11.9864 15.5514 11.4918C15.0562 10.9973 14.385 10.7195 13.6852 10.7195ZM13.6852 15.05C13.3502 15.0506 13.0227 14.9518 12.7439 14.7662C12.4651 14.5805 12.2476 14.3163 12.119 14.0071C11.9905 13.6978 11.9565 13.3573 12.0215 13.0287C12.0864 12.7002 12.2474 12.3982 12.4841 12.1612C12.7207 11.9241 13.0223 11.7626 13.3508 11.697C13.6793 11.6315 14.0198 11.6648 14.3293 11.7929C14.6388 11.9209 14.9034 12.1379 15.0895 12.4163C15.2756 12.6948 15.375 13.0222 15.375 13.3571C15.3762 13.58 15.3334 13.8008 15.249 14.0071C15.1647 14.2133 15.0405 14.4008 14.8835 14.559C14.7265 14.7171 14.5398 14.8427 14.3342 14.9285C14.1286 15.0143 13.908 15.0587 13.6852 15.0591V15.05Z" fill="#2E526B"/>
<path d="M15.7899 18.7173H11.5017C10.6488 18.7157 9.83119 18.3759 9.22832 17.7725C8.62544 17.1691 8.28644 16.3512 8.28564 15.4982V11.2191C8.28644 10.3661 8.62544 9.54826 9.22832 8.94481C9.83119 8.34137 10.6488 8.0016 11.5017 8H15.7899C16.6434 8.0008 17.4617 8.34022 18.0653 8.94375C18.6688 9.54728 19.0082 10.3656 19.009 11.2191V15.4982C19.0082 16.3517 18.6688 17.17 18.0653 17.7736C17.4617 18.3771 16.6434 18.7165 15.7899 18.7173ZM11.5017 9.00238C10.9159 9.00398 10.3546 9.2374 9.94032 9.65164C9.52608 10.0659 9.29266 10.6273 9.29106 11.2131V15.4921C9.29266 16.0779 9.52608 16.6393 9.94032 17.0536C10.3546 17.4678 10.9159 17.7012 11.5017 17.7028H15.7899C16.3757 17.7012 16.9371 17.4678 17.3513 17.0536C17.7656 16.6393 17.999 16.0779 18.0006 15.4921V11.2191C18.0006 10.6323 17.7679 10.0693 17.3534 9.65379C16.939 9.23824 16.3768 9.00399 15.7899 9.00238H11.5017Z" fill="#2E526B"/>
</g>
<defs>
<clipPath id="clip0_111_245">
<rect width="10.7143" height="10.7143" fill="white" transform="translate(8.28564 8)"/>
</clipPath>
</defs>
</svg>
