<svg width="35" height="35" viewBox="0 0 35 35" fill="none" xmlns="http://www.w3.org/2000/svg">
<g clip-path="url(#clip0_111_231)">
<path fill-rule="evenodd" clip-rule="evenodd" d="M17.377 32.1429C21.3552 32.1429 25.1705 30.5625 27.9836 27.7495C30.7966 24.9364 32.377 21.1211 32.377 17.1429C32.377 13.1646 30.7966 9.3493 27.9836 6.53626C25.1705 3.72321 21.3552 2.14286 17.377 2.14286C13.3987 2.14286 9.58343 3.72321 6.77039 6.53626C3.95734 9.3493 2.37699 13.1646 2.37699 17.1429C2.37699 21.1211 3.95734 24.9364 6.77039 27.7495C9.58343 30.5625 13.3987 32.1429 17.377 32.1429V32.1429ZM17.377 34.2857C21.9236 34.2857 26.2839 32.4796 29.4988 29.2647C32.7137 26.0498 34.5198 21.6894 34.5198 17.1429C34.5198 12.5963 32.7137 8.23594 29.4988 5.02103C26.2839 1.80612 21.9236 0 17.377 0C12.8304 0 8.47007 1.80612 5.25516 5.02103C2.04025 8.23594 0.234131 12.5963 0.234131 17.1429C0.234131 21.6894 2.04025 26.0498 5.25516 29.2647C8.47007 32.4796 12.8304 34.2857 17.377 34.2857V34.2857Z" fill="white"/>
<path fill-rule="evenodd" clip-rule="evenodd" d="M16.6182 24.33C16.5185 24.2305 16.4393 24.1123 16.3853 23.9821C16.3313 23.8519 16.3035 23.7124 16.3035 23.5715C16.3035 23.4305 16.3313 23.291 16.3853 23.1608C16.4393 23.0307 16.5185 22.9124 16.6182 22.8129L22.2904 17.1429L16.6182 11.4729C16.5186 11.3733 16.4396 11.255 16.3857 11.1249C16.3318 10.9947 16.304 10.8552 16.304 10.7143C16.304 10.5734 16.3318 10.4339 16.3857 10.3038C16.4396 10.1736 16.5186 10.0554 16.6182 9.95575C16.7179 9.85613 16.8361 9.77711 16.9663 9.7232C17.0964 9.66929 17.2359 9.64154 17.3768 9.64154C17.5177 9.64154 17.6572 9.66929 17.7873 9.7232C17.9175 9.77711 18.0358 9.85613 18.1354 9.95575L24.564 16.3843C24.6637 16.4838 24.7429 16.6021 24.7969 16.7322C24.8509 16.8624 24.8787 17.002 24.8787 17.1429C24.8787 17.2838 24.8509 17.4234 24.7969 17.5535C24.7429 17.6837 24.6637 17.8019 24.564 17.9015L18.1354 24.33C18.0359 24.4298 17.9176 24.509 17.7875 24.563C17.6573 24.617 17.5177 24.6448 17.3768 24.6448C17.2359 24.6448 17.0963 24.617 16.9662 24.563C16.836 24.509 16.7178 24.4298 16.6182 24.33V24.33Z" fill="white"/>
<path fill-rule="evenodd" clip-rule="evenodd" d="M9.87646 17.1429C9.87646 16.8587 9.98935 16.5862 10.1903 16.3853C10.3912 16.1844 10.6637 16.0715 10.9479 16.0715H21.6622C21.9463 16.0715 22.2189 16.1844 22.4198 16.3853C22.6207 16.5862 22.7336 16.8587 22.7336 17.1429C22.7336 17.4271 22.6207 17.6996 22.4198 17.9005C22.2189 18.1014 21.9463 18.2143 21.6622 18.2143H10.9479C10.6637 18.2143 10.3912 18.1014 10.1903 17.9005C9.98935 17.6996 9.87646 17.4271 9.87646 17.1429Z" fill="white"/>
</g>
<defs>
<clipPath id="clip0_111_231">
<rect width="34.2857" height="34.2857" fill="white" transform="translate(0.234131)"/>
</clipPath>
</defs>
</svg>
