<svg width="104" height="28" viewBox="0 0 104 28" fill="none" xmlns="http://www.w3.org/2000/svg">
<circle cx="13.5714" cy="13.7143" r="13.5714" fill="#F1F6FF"/>
<g clip-path="url(#clip0_111_239)">
<path d="M15.3865 14.7408L15.6503 12.8026H14.0303V11.5428C14.0303 11.0129 14.2572 10.495 14.9828 10.495H15.7189V8.84457C15.2825 8.76412 14.8416 8.7206 14.3997 8.71436C13.0646 8.71436 12.1939 9.64406 12.1939 11.3248V12.8026H10.7084V14.7408H12.1939V19.4286H14.0303V14.7408H15.3865Z" fill="#2E526B"/>
</g>
<circle cx="90.0001" cy="13.7144" r="13.5714" fill="#F1F6FF"/>
<g clip-path="url(#clip1_111_239)">
<path d="M92.4773 9.91088C92.3527 9.91088 92.231 9.94783 92.1274 10.017C92.0238 10.0863 91.943 10.1846 91.8954 10.2997C91.8477 10.4148 91.8352 10.5415 91.8595 10.6637C91.8838 10.7859 91.9438 10.8981 92.0319 10.9862C92.12 11.0743 92.2322 11.1343 92.3544 11.1586C92.4766 11.1829 92.6033 11.1704 92.7184 11.1227C92.8335 11.0751 92.9318 10.9943 93.0011 10.8907C93.0703 10.7871 93.1072 10.6654 93.1072 10.5408C93.1072 10.3737 93.0409 10.2135 92.9227 10.0954C92.8046 9.97725 92.6444 9.91088 92.4773 9.91088Z" fill="#2E526B"/>
<path d="M89.6852 10.7195C89.1628 10.7195 88.6521 10.8744 88.2178 11.1647C87.7834 11.455 87.445 11.8676 87.2452 12.3503C87.0454 12.833 86.9933 13.3641 87.0954 13.8765C87.1976 14.3888 87.4494 14.8593 87.819 15.2285C88.1886 15.5977 88.6594 15.849 89.1719 15.9505C89.6843 16.0521 90.2154 15.9993 90.6978 15.799C91.1803 15.5987 91.5925 15.2597 91.8823 14.8251C92.1721 14.3904 92.3265 13.8796 92.3259 13.3571C92.3251 12.6573 92.0465 11.9864 91.5514 11.4918C91.0562 10.9973 90.385 10.7195 89.6852 10.7195ZM89.6852 15.05C89.3502 15.0506 89.0227 14.9518 88.7439 14.7662C88.4651 14.5805 88.2476 14.3163 88.119 14.0071C87.9905 13.6978 87.9565 13.3573 88.0215 13.0287C88.0864 12.7002 88.2474 12.3982 88.4841 12.1612C88.7207 11.9241 89.0223 11.7626 89.3508 11.697C89.6793 11.6315 90.0198 11.6648 90.3293 11.7929C90.6388 11.9209 90.9034 12.1379 91.0895 12.4163C91.2756 12.6948 91.375 13.0222 91.375 13.3571C91.3762 13.58 91.3334 13.8008 91.249 14.0071C91.1647 14.2133 91.0405 14.4008 90.8835 14.559C90.7265 14.7171 90.5398 14.8427 90.3342 14.9285C90.1286 15.0143 89.908 15.0587 89.6852 15.0591V15.05Z" fill="#2E526B"/>
<path d="M91.7899 18.7173H87.5017C86.6488 18.7157 85.8312 18.3759 85.2283 17.7725C84.6254 17.1691 84.2864 16.3512 84.2856 15.4982V11.2191C84.2864 10.3661 84.6254 9.54826 85.2283 8.94481C85.8312 8.34137 86.6488 8.0016 87.5017 8H91.7899C92.6434 8.0008 93.4617 8.34022 94.0653 8.94375C94.6688 9.54728 95.0082 10.3656 95.009 11.2191V15.4982C95.0082 16.3517 94.6688 17.17 94.0653 17.7736C93.4617 18.3771 92.6434 18.7165 91.7899 18.7173ZM87.5017 9.00238C86.9159 9.00398 86.3546 9.2374 85.9403 9.65164C85.5261 10.0659 85.2927 10.6273 85.2911 11.2131V15.4921C85.2927 16.0779 85.5261 16.6393 85.9403 17.0536C86.3546 17.4678 86.9159 17.7012 87.5017 17.7028H91.7899C92.3757 17.7012 92.9371 17.4678 93.3513 17.0536C93.7656 16.6393 93.999 16.0779 94.0006 15.4921V11.2191C94.0006 10.6323 93.7679 10.0693 93.3534 9.65379C92.939 9.23824 92.3768 9.00399 91.7899 9.00238H87.5017Z" fill="#2E526B"/>
</g>
<circle cx="51.4286" cy="13.7144" r="13.5714" fill="#F1F6FF"/>
<g clip-path="url(#clip2_111_239)">
<path d="M57.0984 10.5414C56.7526 10.6981 56.3891 10.8075 56.0168 10.8668C56.1912 10.8353 56.4455 10.502 56.5476 10.3681C56.7081 10.1639 56.8306 9.92976 56.909 9.67788C56.909 9.65951 56.924 9.63327 56.909 9.62014C56.9001 9.61551 56.8903 9.6131 56.8804 9.6131C56.8704 9.6131 56.8606 9.61551 56.8517 9.62014C56.4454 9.85072 56.0134 10.027 55.5657 10.1451C55.5503 10.1498 55.5339 10.1499 55.5185 10.1453C55.503 10.1406 55.4891 10.1314 55.4785 10.1188C55.4443 10.0754 55.4068 10.035 55.3663 9.99808C55.1797 9.83088 54.9695 9.69539 54.7432 9.59652C54.4407 9.46776 54.1143 9.41302 53.7887 9.43642C53.4729 9.45576 53.1646 9.5452 52.884 9.69888C52.6022 9.854 52.3537 10.0684 52.1538 10.3288C51.9454 10.5971 51.7964 10.9109 51.7176 11.2474C51.6483 11.5661 51.6399 11.8962 51.6927 12.2185C51.6927 12.2736 51.6927 12.2815 51.6503 12.2736C49.8858 12.0111 48.4104 11.3314 47.234 9.91147C47.1842 9.8511 47.1568 9.8511 47.1144 9.91147C46.5935 10.733 46.8452 12.0505 47.4957 12.6961C47.5813 12.7891 47.672 12.8768 47.7674 12.9586C47.4695 12.9318 47.1797 12.8426 46.915 12.6961C46.8627 12.662 46.8377 12.683 46.8328 12.7434C46.8296 12.8312 46.8346 12.9191 46.8477 13.0058C46.8995 13.4241 47.0557 13.8203 47.3005 14.1542C47.5453 14.488 47.8698 14.7474 48.2409 14.906C48.3319 14.9476 48.4273 14.9775 48.525 14.9953C48.2501 15.0534 47.968 15.0632 47.6901 15.0241C47.6278 15.0241 47.6054 15.0425 47.6278 15.1055C47.9967 16.1553 48.7892 16.4729 49.3724 16.654C49.4521 16.6671 49.5319 16.6671 49.6216 16.6881C49.6216 16.6881 49.6216 16.6881 49.6216 16.7012C49.4247 17.0188 48.7393 17.255 48.4228 17.3705C47.8394 17.5895 47.218 17.6736 46.601 17.6172C46.5038 17.6014 46.4838 17.6014 46.4564 17.6172C46.429 17.6329 46.4564 17.6592 46.4838 17.6854C46.6085 17.772 46.7331 17.8482 46.8627 17.9216C47.2494 18.1399 47.6582 18.3116 48.0814 18.4334C50.2671 19.0712 52.732 18.604 54.3744 16.8849C55.6629 15.5359 56.119 13.6751 56.119 11.8117C56.119 11.7382 56.2012 11.6988 56.2511 11.6594C56.5777 11.3925 56.8657 11.0768 57.1059 10.7225C57.1443 10.6719 57.1646 10.6087 57.1632 10.544C57.1433 10.5125 57.1433 10.5204 57.0984 10.5414Z" fill="#2E526B"/>
</g>
<defs>
<clipPath id="clip0_111_239">
<rect width="5" height="10.7143" fill="white" transform="translate(10.7144 8.71436)"/>
</clipPath>
<clipPath id="clip1_111_239">
<rect width="10.7143" height="10.7143" fill="white" transform="translate(84.2856 8)"/>
</clipPath>
<clipPath id="clip2_111_239">
<rect width="10.7143" height="9.28571" fill="white" transform="translate(46.4286 9.42847)"/>
</clipPath>
</defs>
</svg>
