<svg width="28" height="28" viewBox="0 0 28 28" fill="none" xmlns="http://www.w3.org/2000/svg">
<circle cx="14.4286" cy="13.7144" r="13.5714" fill="#F1F6FF"/>
<g clip-path="url(#clip0_111_249)">
<path d="M20.0984 10.5414C19.7526 10.6981 19.3891 10.8075 19.0168 10.8668C19.1912 10.8353 19.4455 10.502 19.5476 10.3681C19.7081 10.1639 19.8306 9.92976 19.909 9.67788C19.909 9.65951 19.924 9.63327 19.909 9.62014C19.9001 9.61551 19.8903 9.6131 19.8804 9.6131C19.8704 9.6131 19.8606 9.61551 19.8517 9.62014C19.4454 9.85072 19.0134 10.027 18.5657 10.1451C18.5503 10.1498 18.5339 10.1499 18.5185 10.1453C18.503 10.1406 18.4891 10.1314 18.4785 10.1188C18.4443 10.0754 18.4068 10.035 18.3663 9.99808C18.1797 9.83088 17.9695 9.69539 17.7432 9.59652C17.4407 9.46776 17.1143 9.41302 16.7887 9.43642C16.4729 9.45576 16.1646 9.5452 15.884 9.69888C15.6022 9.854 15.3537 10.0684 15.1538 10.3288C14.9454 10.5971 14.7964 10.9109 14.7176 11.2474C14.6483 11.5661 14.6399 11.8962 14.6927 12.2185C14.6927 12.2736 14.6927 12.2815 14.6503 12.2736C12.8858 12.0111 11.4104 11.3314 10.234 9.91147C10.1842 9.8511 10.1568 9.8511 10.1144 9.91147C9.5935 10.733 9.84522 12.0505 10.4957 12.6961C10.5813 12.7891 10.672 12.8768 10.7674 12.9586C10.4695 12.9318 10.1797 12.8426 9.915 12.6961C9.86266 12.662 9.83774 12.683 9.83276 12.7434C9.82958 12.8312 9.83459 12.9191 9.84771 13.0058C9.89949 13.4241 10.0557 13.8203 10.3005 14.1542C10.5453 14.488 10.8698 14.7474 11.2409 14.906C11.3319 14.9476 11.4273 14.9775 11.525 14.9953C11.2501 15.0534 10.968 15.0632 10.6901 15.0241C10.6278 15.0241 10.6054 15.0425 10.6278 15.1055C10.9967 16.1553 11.7892 16.4729 12.3724 16.654C12.4521 16.6671 12.5319 16.6671 12.6216 16.6881C12.6216 16.6881 12.6216 16.6881 12.6216 16.7012C12.4247 17.0188 11.7393 17.255 11.4228 17.3705C10.8394 17.5895 10.218 17.6736 9.60098 17.6172C9.50378 17.6014 9.48384 17.6014 9.45642 17.6172C9.42901 17.6329 9.45643 17.6592 9.48384 17.6854C9.60846 17.772 9.73307 17.8482 9.86267 17.9216C10.2494 18.1399 10.6582 18.3116 11.0814 18.4334C13.2671 19.0712 15.732 18.604 17.3744 16.8849C18.6629 15.5359 19.119 13.6751 19.119 11.8117C19.119 11.7382 19.2012 11.6988 19.2511 11.6594C19.5777 11.3925 19.8657 11.0768 20.1059 10.7225C20.1443 10.6719 20.1646 10.6087 20.1632 10.544C20.1433 10.5125 20.1433 10.5204 20.0984 10.5414Z" fill="#2E526B"/>
</g>
<defs>
<clipPath id="clip0_111_249">
<rect width="10.7143" height="9.28571" fill="white" transform="translate(9.42859 9.42847)"/>
</clipPath>
</defs>
</svg>
